<mxfile host="app.diagrams.net" modified="2024-04-04T07:42:37.173Z" agent="Mozilla/5.0 (Windows NT 10.0; Win64; x64) AppleWebKit/537.36 (KHTML, like Gecko) Chrome/123.0.0.0 Safari/537.36" version="23.1.5" etag="098EBNpbBmCpvunolTma" type="github">
  <diagram name="Pagina-1" id="ku7md7Tpzh_dGuSf5_hW">
    <mxGraphModel>
      <root>
        <mxCell id="0" />
        <mxCell id="1" parent="0" />
      </root>
    </mxGraphModel>
  </diagram>
</mxfile>
